<svg height="512" viewBox="0 0 64 64" width="512" xmlns="http://www.w3.org/2000/svg"><path d="m42 54h-20v-45l20 9z" fill="#e0e0e2"/><path d="m15 39h7v15h-7z" fill="#acabb1"/><path d="m42 32h13v22h-13z" fill="#acabb1"/><path d="m26 44h6v10h-6z" fill="#57565c"/><path d="m12 44a4 4 0 1 1 -6.78-2.88 3 3 0 1 1 5.56 0 4.009 4.009 0 0 1 1.22 2.88z" fill="#91cc04"/><path d="m26 22h12v4h-12z" fill="#c2dff6"/><path d="m26 29h12v4h-12z" fill="#83d8f4"/><path d="m26 36h12v4h-12z" fill="#c2dff6"/><path d="m45 35h7v4h-7z" fill="#c2dff6"/><path d="m45 42h7v4h-7z" fill="#83d8f4"/><path d="m58 53h-2v-21a1 1 0 0 0 -1-1h-12v-13a1 1 0 0 0 -.59-.912l-20-9a1 1 0 0 0 -1.41.912v29h-6a1 1 0 0 0 -1 1v14h-5v-4.1a5 5 0 0 0 2.9-8.028 3.949 3.949 0 0 0 .1-.872 4 4 0 0 0 -8 0 3.949 3.949 0 0 0 .1.871 5 5 0 0 0 2.9 8.029v.713l-1.684-.561a1 1 0 0 0 -.632 1.9l2.316.769v1.279h-5a1 1 0 0 0 0 2h56a1 1 0 0 0 0-2zm-53-9a3 3 0 0 1 .917-2.163 1 1 0 0 0 .231-1.087 2 2 0 1 1 3.7 0 1 1 0 0 0 .231 1.087 2.993 2.993 0 0 1 -1.079 4.979v-2.816a1 1 0 0 0 -2 0v2.816a3 3 0 0 1 -2-2.816zm11-4h5v13h-5zm7-29.454 18 8.1v34.354h-8v-9a1 1 0 0 0 -1-1h-6a1 1 0 0 0 -1 1v9h-2zm4 42.454v-8h4v8zm16 0v-20h11v20z"/><path d="m62 53h-1a1 1 0 0 0 0 2h1a1 1 0 0 0 0-2z"/><path d="m26 27h12a1 1 0 0 0 1-1v-4a1 1 0 0 0 -1-1h-12a1 1 0 0 0 -1 1v4a1 1 0 0 0 1 1zm1-4h10v2h-10z"/><path d="m26 34h12a1 1 0 0 0 1-1v-4a1 1 0 0 0 -1-1h-12a1 1 0 0 0 -1 1v4a1 1 0 0 0 1 1zm1-4h10v2h-10z"/><path d="m26 41h12a1 1 0 0 0 1-1v-4a1 1 0 0 0 -1-1h-12a1 1 0 0 0 -1 1v4a1 1 0 0 0 1 1zm1-4h10v2h-10z"/><path d="m52 34h-7a1 1 0 0 0 -1 1v4a1 1 0 0 0 1 1h7a1 1 0 0 0 1-1v-4a1 1 0 0 0 -1-1zm-1 4h-5v-2h5z"/><path d="m52 41h-7a1 1 0 0 0 -1 1v4a1 1 0 0 0 1 1h7a1 1 0 0 0 1-1v-4a1 1 0 0 0 -1-1zm-1 4h-5v-2h5z"/></svg>